g FX_MSH_Arrow_AA
v -0.2471676 0.5011089 0.1020574
v 0.2796102 0.0246402 0.1029593
v -0.2796102 0.4880287 0.1025218
v 0.07797704 0.0002558914 0.1145892
v -0.2796102 0.2845189 0.1051475
v 0.007593835 0.02670351 0.1155414
v 0.007770245 -0.02554272 0.1155424
v 0.2693198 -0.001786598 0.1050113
v 0.2795257 -0.02897294 0.1029588
v -0.2780496 -0.284502 0.1051936
v -0.2457906 -0.5011089 0.1020531
v -0.2780496 -0.4879173 0.1025257
v -0.2780496 -0.4879173 0.1025257
v -0.2780496 -0.2845019 -1.554173E-08
v -0.2780496 -0.284502 0.1051936
v -0.2780496 -0.4879172 -3.230743E-08
v -0.2457906 -0.5011089 0.1020531
v 0.2795257 -0.02897291 7.438991E-09
v -0.2457906 -0.5011089 -3.682112E-08
v 0.2795257 -0.02897294 0.1029588
v -0.2796102 0.4880287 0.1025218
v -0.2796102 0.284519 3.295335E-08
v -0.2796102 0.4880288 4.972318E-08
v -0.2796102 0.2845189 0.1051475
v -0.2796102 0.2845189 0.1051475
v 0.007593835 0.02670354 9.872687E-09
v -0.2796102 0.284519 3.295335E-08
v 0.007593835 0.02670351 0.1155414
v 0.2796102 0.0246402 0.1029593
v -0.2471676 0.5011089 5.423199E-08
v 0.2796102 0.02464023 9.782495E-09
v -0.2471676 0.5011089 0.1020574
v -0.2780496 -0.284502 0.1051936
v 0.007770245 -0.02554269 7.58893E-09
v 0.007770245 -0.02554272 0.1155424
v -0.2780496 -0.2845019 -1.554173E-08
v -0.2471676 0.5011089 0.1020574
v -0.2796102 0.4880288 4.972318E-08
v -0.2471676 0.5011089 5.423199E-08
v -0.2796102 0.4880287 0.1025218
v -0.2457906 -0.5011089 0.1020531
v -0.2780496 -0.4879172 -3.230743E-08
v -0.2780496 -0.4879173 0.1025257
v -0.2457906 -0.5011089 -3.682112E-08
v 0.2796102 0.0246402 0.1029593
v 0.2795257 -0.02897291 7.438991E-09
v 0.2795257 -0.02897294 0.1029588
v 0.2796102 0.02464023 9.782495E-09
v 0.007770245 -0.02554272 0.1155424
v 0.007593835 0.02670354 9.872687E-09
v 0.007593835 0.02670351 0.1155414
v 0.007770245 -0.02554269 7.58893E-09
v -0.2471676 0.5011089 -0.1020573
v -0.2796102 0.4880287 -0.1025217
v 0.2796102 0.02464022 -0.1029593
v 0.07797704 0.0002559115 -0.1145892
v -0.2796102 0.2845189 -0.1051474
v 0.007593835 0.02670353 -0.1155414
v 0.007770245 -0.0255427 -0.1155424
v 0.2693198 -0.00178658 -0.1050113
v 0.2795257 -0.02897292 -0.1029588
v -0.2780496 -0.284502 -0.1051936
v -0.2457906 -0.5011089 -0.1020532
v -0.2780496 -0.4879173 -0.1025258
v -0.2780496 -0.4879173 -0.1025258
v -0.2780496 -0.2845019 -1.554173E-08
v -0.2780496 -0.4879172 -3.230743E-08
v -0.2780496 -0.284502 -0.1051936
v -0.2457906 -0.5011089 -0.1020532
v 0.2795257 -0.02897291 7.438991E-09
v 0.2795257 -0.02897292 -0.1029588
v -0.2457906 -0.5011089 -3.682112E-08
v -0.2796102 0.4880287 -0.1025217
v -0.2796102 0.284519 3.295335E-08
v -0.2796102 0.2845189 -0.1051474
v -0.2796102 0.4880288 4.972318E-08
v -0.2796102 0.2845189 -0.1051474
v 0.007593835 0.02670354 9.872687E-09
v 0.007593835 0.02670353 -0.1155414
v -0.2796102 0.284519 3.295335E-08
v 0.2796102 0.02464022 -0.1029593
v -0.2471676 0.5011089 5.423199E-08
v -0.2471676 0.5011089 -0.1020573
v 0.2796102 0.02464023 9.782495E-09
v -0.2780496 -0.284502 -0.1051936
v 0.007770245 -0.02554269 7.58893E-09
v -0.2780496 -0.2845019 -1.554173E-08
v 0.007770245 -0.0255427 -0.1155424
v -0.2471676 0.5011089 -0.1020573
v -0.2796102 0.4880288 4.972318E-08
v -0.2796102 0.4880287 -0.1025217
v -0.2471676 0.5011089 5.423199E-08
v -0.2457906 -0.5011089 -0.1020532
v -0.2780496 -0.4879172 -3.230743E-08
v -0.2457906 -0.5011089 -3.682112E-08
v -0.2780496 -0.4879173 -0.1025258
v 0.2796102 0.02464022 -0.1029593
v 0.2795257 -0.02897291 7.438991E-09
v 0.2796102 0.02464023 9.782495E-09
v 0.2795257 -0.02897292 -0.1029588
v 0.007770245 -0.0255427 -0.1155424
v 0.007593835 0.02670354 9.872687E-09
v 0.007770245 -0.02554269 7.58893E-09
v 0.007593835 0.02670353 -0.1155414
vt 0.3723145 0.9101563
vt 0.4362793 0.980957
vt 0.3740234 0.9057617
vt 0.4394531 0.9536133
vt 0.4013672 0.9057617
vt 0.4360352 0.9443359
vt 0.4428711 0.9443359
vt 0.4396973 0.9794922
vt 0.4433594 0.980957
vt 0.4777832 0.90625
vt 0.5068359 0.9101563
vt 0.5048828 0.90625
vt 0.4748535 0.8510742
vt 0.4599609 0.8378906
vt 0.4599609 0.8510742
vt 0.4748535 0.8378906
vt 0.375 0.875
vt 0.4255371 0.8613281
vt 0.375 0.8613281
vt 0.4255371 0.875
vt 0.4570313 0.8974609
vt 0.4909668 0.8798828
vt 0.4570313 0.8798828
vt 0.4909668 0.8974609
vt 0.3723145 0.8510742
vt 0.4067383 0.8378906
vt 0.3723145 0.8378906
vt 0.4067383 0.8510742
vt 0.375 0.8974609
vt 0.4370117 0.8798828
vt 0.375 0.8798828
vt 0.4370117 0.8974609
vt 0.4599609 0.8510742
vt 0.4343262 0.8378906
vt 0.4343262 0.8510742
vt 0.4599609 0.8378906
vt 0.4370117 0.8974609
vt 0.4570313 0.8798828
vt 0.4370117 0.8798828
vt 0.4570313 0.8974609
vt 0.5214844 0.8510742
vt 0.4748535 0.8378906
vt 0.4748535 0.8510742
vt 0.5214844 0.8378906
vt 0.4763184 0.875
vt 0.4255371 0.8613281
vt 0.4255371 0.875
vt 0.4763184 0.8613281
vt 0.4343262 0.8510742
vt 0.4067383 0.8378906
vt 0.4067383 0.8510742
vt 0.4343262 0.8378906
vt 0.3723145 0.9101563
vt 0.3740234 0.9057617
vt 0.4362793 0.980957
vt 0.4394531 0.9536133
vt 0.4013672 0.9057617
vt 0.4360352 0.9443359
vt 0.4428711 0.9443359
vt 0.4396973 0.9794922
vt 0.4433594 0.980957
vt 0.4777832 0.90625
vt 0.5068359 0.9101563
vt 0.5048828 0.90625
vt 0.4748535 0.8510742
vt 0.4599609 0.8378906
vt 0.4748535 0.8378906
vt 0.4599609 0.8510742
vt 0.375 0.875
vt 0.4255371 0.8613281
vt 0.4255371 0.875
vt 0.375 0.8613281
vt 0.4570313 0.8974609
vt 0.4909668 0.8798828
vt 0.4909668 0.8974609
vt 0.4570313 0.8798828
vt 0.3723145 0.8510742
vt 0.4067383 0.8378906
vt 0.4067383 0.8510742
vt 0.3723145 0.8378906
vt 0.375 0.8974609
vt 0.4370117 0.8798828
vt 0.4370117 0.8974609
vt 0.375 0.8798828
vt 0.4599609 0.8510742
vt 0.4343262 0.8378906
vt 0.4599609 0.8378906
vt 0.4343262 0.8510742
vt 0.4370117 0.8974609
vt 0.4570313 0.8798828
vt 0.4570313 0.8974609
vt 0.4370117 0.8798828
vt 0.5214844 0.8510742
vt 0.4748535 0.8378906
vt 0.5214844 0.8378906
vt 0.4748535 0.8510742
vt 0.4763184 0.875
vt 0.4255371 0.8613281
vt 0.4763184 0.8613281
vt 0.4255371 0.875
vt 0.4343262 0.8510742
vt 0.4067383 0.8378906
vt 0.4343262 0.8378906
vt 0.4067383 0.8510742
vn 0.009368896 0.01225281 1
vn 0.07348633 0.04879761 0.9960938
vn 0.006259918 0.01867676 1
vn 0.04263306 -0.015625 0.9990234
vn -0.01444244 0.01503754 1
vn 0.03829956 0.06604004 0.9970703
vn 0.0378418 -0.06481934 0.9970703
vn 0.104248 -0.0007810593 0.9946289
vn 0.07281494 -0.04788208 0.9960938
vn 0.01205444 -0.02243042 0.9995117
vn 0.009086609 -0.0140686 1
vn 0.009284973 -0.01311493 1
vn -1 0 0
vn -1 0 0
vn -1 0 0
vn -1 0 0
vn 0.668457 -0.7436523 -2.980232E-07
vn 0.668457 -0.7436523 0
vn 0.668457 -0.7436523 0
vn 0.668457 -0.7436523 -1.788139E-07
vn -1 0 0
vn -1 0 0
vn -1 0 0
vn -1 0 0
vn -0.6679688 -0.7441406 -3.576279E-07
vn -0.6679688 -0.7441406 0
vn -0.6679688 -0.7441406 0
vn -0.6679688 -0.7441406 -1.788139E-07
vn 0.6708984 0.7416992 1.788139E-07
vn 0.6708984 0.7416992 0
vn 0.6708984 0.7416992 0
vn 0.6708984 0.7416992 2.980232E-07
vn -0.6713867 0.7412109 5.960464E-07
vn -0.6713867 0.7412109 0
vn -0.6713867 0.7412109 1.788139E-07
vn -0.6713867 0.7412109 0
vn -0.3740234 0.9272461 5.960464E-07
vn -0.3740234 0.9272461 0
vn -0.3740234 0.9272461 0
vn -0.3740234 0.9272461 7.152557E-07
vn -0.378418 -0.9257813 -5.960464E-07
vn -0.378418 -0.9257813 0
vn -0.378418 -0.9257813 -7.152557E-07
vn -0.378418 -0.9257813 0
vn 1 -0.001576424 0
vn 1 -0.001576424 0
vn 1 -0.001576424 0
vn 1 -0.001576424 0
vn -1 -0.003376007 0
vn -1 -0.003376007 0
vn -1 -0.003376007 0
vn -1 -0.003376007 0
vn 0.009368896 0.01225281 -1
vn 0.006259918 0.01867676 -1
vn 0.07348633 0.04879761 -0.9960938
vn 0.04263306 -0.015625 -0.9990234
vn -0.01444244 0.01503754 -1
vn 0.03829956 0.06604004 -0.9970703
vn 0.0378418 -0.06481934 -0.9970703
vn 0.104248 -0.0007810593 -0.9946289
vn 0.07281494 -0.04788208 -0.9960938
vn 0.01205444 -0.02243042 -0.9995117
vn 0.009086609 -0.0140686 -1
vn 0.009284973 -0.01311493 -1
vn -1 0 0
vn -1 0 0
vn -1 0 0
vn -1 0 0
vn 0.668457 -0.7436523 2.384186E-07
vn 0.668457 -0.7436523 0
vn 0.668457 -0.7436523 0
vn 0.668457 -0.7436523 0
vn -1 0 0
vn -1 0 0
vn -1 0 0
vn -1 0 0
vn -0.6679688 -0.7441406 3.576279E-07
vn -0.6679688 -0.7441406 0
vn -0.6679688 -0.7441406 0
vn -0.6679688 -0.7441406 0
vn 0.6708984 0.7416992 0
vn 0.6708984 0.7416992 0
vn 0.6708984 0.7416992 -2.980232E-07
vn 0.6708984 0.7416992 0
vn -0.6713867 0.7412109 -5.364418E-07
vn -0.6713867 0.7412109 0
vn -0.6713867 0.7412109 0
vn -0.6713867 0.7412109 0
vn -0.3740234 0.9272461 -5.960464E-07
vn -0.3740234 0.9272461 0
vn -0.3740234 0.9272461 -7.152557E-07
vn -0.3740234 0.9272461 0
vn -0.378418 -0.9257813 5.960464E-07
vn -0.378418 -0.9257813 0
vn -0.378418 -0.9257813 0
vn -0.378418 -0.9257813 7.152557E-07
vn 1 -0.001576424 0
vn 1 -0.001576424 0
vn 1 -0.001576424 0
vn 1 -0.001576424 0
vn -1 -0.003376007 0
vn -1 -0.003376007 0
vn -1 -0.003376007 0
vn -1 -0.003376007 0
g FX_MSH_Arrow_AA_0
f 3/3/3 2/2/2 1/1/1
f 4/4/4 2/2/2 3/3/3
f 5/5/5 4/4/4 3/3/3
f 6/6/6 4/4/4 5/5/5
f 7/7/7 4/4/4 6/6/6
f 8/8/8 2/2/2 4/4/4
f 7/7/7 8/8/8 4/4/4
f 9/9/9 2/2/2 8/8/8
f 10/10/10 8/8/8 7/7/7
f 9/9/9 8/8/8 11/11/11
f 11/11/11 8/8/8 10/10/10
f 12/12/12 11/11/11 10/10/10
f 15/15/15 14/14/14 13/13/13
f 16/16/16 13/13/13 14/14/14
f 19/19/19 18/18/18 17/17/17
f 20/20/20 17/17/17 18/18/18
f 23/23/23 22/22/22 21/21/21
f 24/24/24 21/21/21 22/22/22
f 27/27/27 26/26/26 25/25/25
f 28/28/28 25/25/25 26/26/26
f 31/31/31 30/30/30 29/29/29
f 32/32/32 29/29/29 30/30/30
f 35/35/35 34/34/34 33/33/33
f 36/36/36 33/33/33 34/34/34
f 39/39/39 38/38/38 37/37/37
f 40/40/40 37/37/37 38/38/38
f 43/43/43 42/42/42 41/41/41
f 44/44/44 41/41/41 42/42/42
f 47/47/47 46/46/46 45/45/45
f 48/48/48 45/45/45 46/46/46
f 51/51/51 50/50/50 49/49/49
f 52/52/52 49/49/49 50/50/50
f 55/55/55 54/54/54 53/53/53
f 56/56/56 54/54/54 55/55/55
f 57/57/57 54/54/54 56/56/56
f 58/58/58 57/57/57 56/56/56
f 56/56/56 59/59/59 58/58/58
f 60/60/60 56/56/56 55/55/55
f 60/60/60 59/59/59 56/56/56
f 55/55/55 61/61/61 60/60/60
f 62/62/62 59/59/59 60/60/60
f 61/61/61 63/63/63 60/60/60
f 63/63/63 62/62/62 60/60/60
f 64/64/64 62/62/62 63/63/63
f 67/67/67 66/66/66 65/65/65
f 68/68/68 65/65/65 66/66/66
f 71/71/71 70/70/70 69/69/69
f 72/72/72 69/69/69 70/70/70
f 75/75/75 74/74/74 73/73/73
f 76/76/76 73/73/73 74/74/74
f 79/79/79 78/78/78 77/77/77
f 80/80/80 77/77/77 78/78/78
f 83/83/83 82/82/82 81/81/81
f 84/84/84 81/81/81 82/82/82
f 87/87/87 86/86/86 85/85/85
f 88/88/88 85/85/85 86/86/86
f 91/91/91 90/90/90 89/89/89
f 92/92/92 89/89/89 90/90/90
f 95/95/95 94/94/94 93/93/93
f 96/96/96 93/93/93 94/94/94
f 99/99/99 98/98/98 97/97/97
f 100/100/100 97/97/97 98/98/98
f 103/103/103 102/102/102 101/101/101
f 104/104/104 101/101/101 102/102/102
